<mxfile host="app.diagrams.net" agent="Mozilla/5.0 (X11; Linux x86_64) AppleWebKit/537.36 (KHTML, like Gecko) Chrome/130.0.0.0 Safari/537.36" version="24.8.0">
  <diagram name="Page-1" id="_7Mi47ndJOTU_JMogV5w">
    <mxGraphModel dx="989" dy="1794" grid="1" gridSize="10" guides="1" tooltips="1" connect="1" arrows="1" fold="1" page="1" pageScale="1" pageWidth="827" pageHeight="1169" math="0" shadow="0">
      <root>
        <mxCell id="0" />
        <mxCell id="1" parent="0" />
        <mxCell id="k5P6EOGQu1ZiepA7MPoY-40" value="" style="rounded=1;whiteSpace=wrap;html=1;absoluteArcSize=1;arcSize=14;strokeWidth=2;fillColor=#fff2cc;strokeColor=#d6b656;" vertex="1" parent="1">
          <mxGeometry x="330" y="110" width="690" height="720" as="geometry" />
        </mxCell>
        <mxCell id="k5P6EOGQu1ZiepA7MPoY-1" value="End" style="strokeWidth=2;html=1;shape=mxgraph.flowchart.terminator;whiteSpace=wrap;" vertex="1" parent="1">
          <mxGeometry x="80" y="840" width="100" height="60" as="geometry" />
        </mxCell>
        <mxCell id="k5P6EOGQu1ZiepA7MPoY-2" value="start" style="strokeWidth=2;html=1;shape=mxgraph.flowchart.start_1;whiteSpace=wrap;" vertex="1" parent="1">
          <mxGeometry x="90" y="40" width="100" height="60" as="geometry" />
        </mxCell>
        <mxCell id="k5P6EOGQu1ZiepA7MPoY-4" value="&lt;div style=&quot;color: #000000;background-color: #ffffff;font-family: &#39;Droid Sans Mono&#39;, &#39;monospace&#39;, monospace;font-weight: normal;font-size: 16px;line-height: 22px;white-space: pre;&quot;&gt;&lt;div&gt;&lt;span style=&quot;color: #000000;&quot;&gt;slip_body_x_ss&lt;/span&gt;&lt;/div&gt;&lt;/div&gt;" style="text;whiteSpace=wrap;html=1;" vertex="1" parent="1">
          <mxGeometry x="630" y="1020" width="170" height="50" as="geometry" />
        </mxCell>
        <mxCell id="k5P6EOGQu1ZiepA7MPoY-5" value="" style="endArrow=classic;html=1;rounded=0;" edge="1" parent="1">
          <mxGeometry width="50" height="50" relative="1" as="geometry">
            <mxPoint x="520" y="1130" as="sourcePoint" />
            <mxPoint x="520" y="990" as="targetPoint" />
          </mxGeometry>
        </mxCell>
        <mxCell id="k5P6EOGQu1ZiepA7MPoY-6" value="" style="endArrow=classic;html=1;rounded=0;" edge="1" parent="1">
          <mxGeometry width="50" height="50" relative="1" as="geometry">
            <mxPoint x="500" y="1120" as="sourcePoint" />
            <mxPoint x="620" y="1120" as="targetPoint" />
          </mxGeometry>
        </mxCell>
        <mxCell id="k5P6EOGQu1ZiepA7MPoY-7" value="z" style="text;html=1;align=center;verticalAlign=middle;whiteSpace=wrap;rounded=0;" vertex="1" parent="1">
          <mxGeometry x="580" y="1010" width="60" height="30" as="geometry" />
        </mxCell>
        <mxCell id="k5P6EOGQu1ZiepA7MPoY-9" value="x" style="text;html=1;align=center;verticalAlign=middle;whiteSpace=wrap;rounded=0;" vertex="1" parent="1">
          <mxGeometry x="590" y="1090" width="60" height="30" as="geometry" />
        </mxCell>
        <mxCell id="k5P6EOGQu1ZiepA7MPoY-11" value="y" style="text;html=1;align=center;verticalAlign=middle;whiteSpace=wrap;rounded=0;" vertex="1" parent="1">
          <mxGeometry x="480" y="960" width="60" height="30" as="geometry" />
        </mxCell>
        <mxCell id="k5P6EOGQu1ZiepA7MPoY-12" value="&lt;div style=&quot;color: #000000;background-color: #ffffff;font-family: &#39;Droid Sans Mono&#39;, &#39;monospace&#39;, monospace;font-weight: normal;font-size: 16px;line-height: 22px;white-space: pre;&quot;&gt;&lt;div&gt;&lt;span style=&quot;color: #a31515;&quot;&gt;cmd_body_yaw_lwmean&lt;/span&gt;&lt;/div&gt;&lt;/div&gt;" style="text;whiteSpace=wrap;html=1;" vertex="1" parent="1">
          <mxGeometry x="590" y="1070" width="220" height="50" as="geometry" />
        </mxCell>
        <mxCell id="k5P6EOGQu1ZiepA7MPoY-13" value="&lt;div style=&quot;color: #000000;background-color: #ffffff;font-family: &#39;Droid Sans Mono&#39;, &#39;monospace&#39;, monospace;font-weight: normal;font-size: 16px;line-height: 22px;white-space: pre;&quot;&gt;&lt;div&gt;&lt;span style=&quot;color: #a31515;&quot;&gt;cmd_body_x_lwmean&lt;/span&gt;&lt;/div&gt;&lt;/div&gt;" style="text;whiteSpace=wrap;html=1;" vertex="1" parent="1">
          <mxGeometry x="340" y="980" width="200" height="50" as="geometry" />
        </mxCell>
        <mxCell id="k5P6EOGQu1ZiepA7MPoY-14" value="start" style="strokeWidth=2;html=1;shape=mxgraph.flowchart.start_1;whiteSpace=wrap;" vertex="1" parent="1">
          <mxGeometry x="330" y="40" width="100" height="60" as="geometry" />
        </mxCell>
        <mxCell id="k5P6EOGQu1ZiepA7MPoY-15" value="End" style="strokeWidth=2;html=1;shape=mxgraph.flowchart.terminator;whiteSpace=wrap;" vertex="1" parent="1">
          <mxGeometry x="350" y="850" width="100" height="60" as="geometry" />
        </mxCell>
        <mxCell id="k5P6EOGQu1ZiepA7MPoY-16" value="End" style="strokeWidth=2;html=1;shape=mxgraph.flowchart.terminator;whiteSpace=wrap;" vertex="1" parent="1">
          <mxGeometry x="620" y="860" width="100" height="60" as="geometry" />
        </mxCell>
        <mxCell id="k5P6EOGQu1ZiepA7MPoY-27" style="edgeStyle=orthogonalEdgeStyle;rounded=0;orthogonalLoop=1;jettySize=auto;html=1;" edge="1" parent="1" target="k5P6EOGQu1ZiepA7MPoY-23">
          <mxGeometry relative="1" as="geometry">
            <mxPoint x="450" y="260" as="sourcePoint" />
          </mxGeometry>
        </mxCell>
        <mxCell id="k5P6EOGQu1ZiepA7MPoY-28" value="steady_state" style="edgeLabel;html=1;align=center;verticalAlign=middle;resizable=0;points=[];" vertex="1" connectable="0" parent="k5P6EOGQu1ZiepA7MPoY-27">
          <mxGeometry x="-0.1208" y="-2" relative="1" as="geometry">
            <mxPoint as="offset" />
          </mxGeometry>
        </mxCell>
        <mxCell id="k5P6EOGQu1ZiepA7MPoY-35" style="edgeStyle=orthogonalEdgeStyle;rounded=0;orthogonalLoop=1;jettySize=auto;html=1;exitX=0.5;exitY=1;exitDx=0;exitDy=0;" edge="1" parent="1" source="k5P6EOGQu1ZiepA7MPoY-37">
          <mxGeometry relative="1" as="geometry">
            <mxPoint x="870" y="700" as="targetPoint" />
            <mxPoint x="860" y="490" as="sourcePoint" />
          </mxGeometry>
        </mxCell>
        <mxCell id="k5P6EOGQu1ZiepA7MPoY-17" value="start" style="strokeWidth=2;html=1;shape=mxgraph.flowchart.start_1;whiteSpace=wrap;" vertex="1" parent="1">
          <mxGeometry x="860" y="-160" width="100" height="60" as="geometry" />
        </mxCell>
        <mxCell id="k5P6EOGQu1ZiepA7MPoY-18" value="&lt;div style=&quot;color: #000000;background-color: #ffffff;font-family: &#39;Droid Sans Mono&#39;, &#39;monospace&#39;, monospace;font-weight: normal;font-size: 16px;line-height: 22px;white-space: pre;&quot;&gt;&lt;div&gt;&lt;span style=&quot;color: #000000;&quot;&gt;slip_body_x_ss&lt;/span&gt;&lt;/div&gt;&lt;/div&gt;" style="text;whiteSpace=wrap;html=1;" vertex="1" parent="1">
          <mxGeometry x="595" y="930" width="170" height="50" as="geometry" />
        </mxCell>
        <mxCell id="k5P6EOGQu1ZiepA7MPoY-19" value="&lt;div style=&quot;color: rgb(0, 0, 0); background-color: rgb(255, 255, 255); font-family: &amp;quot;Droid Sans Mono&amp;quot;, &amp;quot;monospace&amp;quot;, monospace; font-weight: normal; font-size: 8px; line-height: 22px; white-space: pre;&quot;&gt;&lt;div style=&quot;&quot;&gt;&lt;span style=&quot;&quot;&gt;slip_body_x_ss&lt;/span&gt;&lt;span style=&quot;color: rgb(0, 0, 0);&quot;&gt;= body_vel[&lt;/span&gt;&lt;span style=&quot;color: rgb(9, 134, 88);&quot;&gt;0&lt;/span&gt;&lt;span style=&quot;color: rgb(0, 0, 0);&quot;&gt;,:] - icp_vel_x&lt;/span&gt;&lt;/div&gt;&lt;/div&gt;" style="text;whiteSpace=wrap;html=1;fontSize=11;" vertex="1" parent="1">
          <mxGeometry x="587.5" y="800" width="255" height="30" as="geometry" />
        </mxCell>
        <mxCell id="k5P6EOGQu1ZiepA7MPoY-21" style="edgeStyle=orthogonalEdgeStyle;rounded=0;orthogonalLoop=1;jettySize=auto;html=1;entryX=0.369;entryY=-0.056;entryDx=0;entryDy=0;entryPerimeter=0;" edge="1" parent="1" source="k5P6EOGQu1ZiepA7MPoY-20" target="k5P6EOGQu1ZiepA7MPoY-19">
          <mxGeometry relative="1" as="geometry" />
        </mxCell>
        <mxCell id="k5P6EOGQu1ZiepA7MPoY-26" value="body_vel" style="edgeLabel;html=1;align=center;verticalAlign=middle;resizable=0;points=[];" vertex="1" connectable="0" parent="k5P6EOGQu1ZiepA7MPoY-21">
          <mxGeometry x="-0.1667" y="-2" relative="1" as="geometry">
            <mxPoint as="offset" />
          </mxGeometry>
        </mxCell>
        <mxCell id="k5P6EOGQu1ZiepA7MPoY-20" value="&lt;div style=&quot;background-color: rgb(255, 255, 255); font-family: &amp;quot;Droid Sans Mono&amp;quot;, &amp;quot;monospace&amp;quot;, monospace; font-size: 9px; line-height: 22px; white-space: pre;&quot;&gt;&lt;span style=&quot;color: rgb(0, 0, 255); font-size: 9px;&quot;&gt;self&lt;/span&gt;.ideal_diff_drive.compute_body_vel(cmd_vel)&lt;/div&gt;" style="rounded=0;whiteSpace=wrap;html=1;fontSize=9;" vertex="1" parent="1">
          <mxGeometry x="480" y="700" width="120" height="60" as="geometry" />
        </mxCell>
        <mxCell id="k5P6EOGQu1ZiepA7MPoY-24" style="edgeStyle=orthogonalEdgeStyle;rounded=0;orthogonalLoop=1;jettySize=auto;html=1;entryX=0.5;entryY=0;entryDx=0;entryDy=0;" edge="1" parent="1" source="k5P6EOGQu1ZiepA7MPoY-22" target="k5P6EOGQu1ZiepA7MPoY-20">
          <mxGeometry relative="1" as="geometry" />
        </mxCell>
        <mxCell id="k5P6EOGQu1ZiepA7MPoY-25" value="cmd_left, cmd_right" style="edgeLabel;html=1;align=center;verticalAlign=middle;resizable=0;points=[];" vertex="1" connectable="0" parent="k5P6EOGQu1ZiepA7MPoY-24">
          <mxGeometry x="-0.3725" y="2" relative="1" as="geometry">
            <mxPoint as="offset" />
          </mxGeometry>
        </mxCell>
        <mxCell id="k5P6EOGQu1ZiepA7MPoY-22" value="&lt;div style=&quot;background-color: rgb(255, 255, 255); font-family: &amp;quot;Droid Sans Mono&amp;quot;, &amp;quot;monospace&amp;quot;, monospace; line-height: 22px; white-space: pre;&quot;&gt;&lt;font style=&quot;font-size: 8px;&quot;&gt;np.mean(column_type_extractor(df_last_window, &lt;span style=&quot;color: rgb(163, 21, 21);&quot;&gt;&#39;cmd_left&#39;&lt;/span&gt;,verbose=&lt;span style=&quot;color: rgb(0, 0, 255);&quot;&gt;False&lt;/span&gt;),axis=&lt;span style=&quot;color: rgb(9, 134, 88);&quot;&gt;1&lt;/span&gt;)&lt;/font&gt;&lt;/div&gt;&lt;div style=&quot;background-color: rgb(255, 255, 255); font-family: &amp;quot;Droid Sans Mono&amp;quot;, &amp;quot;monospace&amp;quot;, monospace; line-height: 22px; white-space: pre;&quot;&gt;&lt;div style=&quot;line-height: 22px;&quot;&gt;&lt;font style=&quot;font-size: 8px;&quot;&gt;np.mean(column_type_extractor(df_last_window, &lt;span style=&quot;color: rgb(163, 21, 21);&quot;&gt;&#39;cmd_right&#39;&lt;/span&gt;,verbose=&lt;span style=&quot;color: rgb(0, 0, 255);&quot;&gt;False&lt;/span&gt;),axis=&lt;span style=&quot;color: rgb(9, 134, 88);&quot;&gt;1&lt;/span&gt;)&lt;/font&gt;&lt;/div&gt;&lt;/div&gt;" style="rounded=0;whiteSpace=wrap;html=1;fontSize=8;" vertex="1" parent="1">
          <mxGeometry x="480" y="555" width="120" height="60" as="geometry" />
        </mxCell>
        <mxCell id="k5P6EOGQu1ZiepA7MPoY-33" style="edgeStyle=orthogonalEdgeStyle;rounded=0;orthogonalLoop=1;jettySize=auto;html=1;" edge="1" parent="1" source="k5P6EOGQu1ZiepA7MPoY-23" target="k5P6EOGQu1ZiepA7MPoY-22">
          <mxGeometry relative="1" as="geometry" />
        </mxCell>
        <mxCell id="k5P6EOGQu1ZiepA7MPoY-23" value="&lt;div style=&quot;background-color: rgb(255, 255, 255); font-family: &amp;quot;Droid Sans Mono&amp;quot;, &amp;quot;monospace&amp;quot;, monospace; font-size: 10px; line-height: 22px; white-space: pre;&quot;&gt;df_slip_dataset[&lt;span style=&quot;color: rgb(163, 21, 21); font-size: 10px;&quot;&gt;&#39;steady_state_mask&#39;&lt;/span&gt;] == &lt;span style=&quot;color: rgb(9, 134, 88); font-size: 10px;&quot;&gt;1&lt;/span&gt;&lt;/div&gt;" style="rounded=0;whiteSpace=wrap;html=1;fontSize=10;" vertex="1" parent="1">
          <mxGeometry x="390" y="455" width="120" height="60" as="geometry" />
        </mxCell>
        <mxCell id="k5P6EOGQu1ZiepA7MPoY-32" style="edgeStyle=orthogonalEdgeStyle;rounded=0;orthogonalLoop=1;jettySize=auto;html=1;" edge="1" parent="1" source="k5P6EOGQu1ZiepA7MPoY-29">
          <mxGeometry relative="1" as="geometry">
            <mxPoint x="773.3333333333335" y="805" as="targetPoint" />
          </mxGeometry>
        </mxCell>
        <mxCell id="k5P6EOGQu1ZiepA7MPoY-29" value="&lt;div style=&quot;background-color: rgb(255, 255, 255); font-family: &amp;quot;Droid Sans Mono&amp;quot;, &amp;quot;monospace&amp;quot;, monospace; font-size: 8px; line-height: 22px; white-space: pre;&quot;&gt;&lt;div style=&quot;font-size: 8px; line-height: 22px;&quot;&gt;np.mean(step_frame_vx[:,-nb_data_to_compute_ss:],axis=&lt;span style=&quot;color: rgb(9, 134, 88); font-size: 8px;&quot;&gt;1&lt;/span&gt;)&lt;/div&gt;&lt;/div&gt;" style="rounded=0;whiteSpace=wrap;html=1;fontSize=8;" vertex="1" parent="1">
          <mxGeometry x="810" y="700" width="120" height="60" as="geometry" />
        </mxCell>
        <mxCell id="k5P6EOGQu1ZiepA7MPoY-31" style="edgeStyle=orthogonalEdgeStyle;rounded=0;orthogonalLoop=1;jettySize=auto;html=1;entryX=0.25;entryY=0;entryDx=0;entryDy=0;" edge="1" parent="1" source="k5P6EOGQu1ZiepA7MPoY-30" target="k5P6EOGQu1ZiepA7MPoY-29">
          <mxGeometry relative="1" as="geometry" />
        </mxCell>
        <mxCell id="k5P6EOGQu1ZiepA7MPoY-30" value="&lt;span style=&quot;font-family: &amp;quot;Droid Sans Mono&amp;quot;, &amp;quot;monospace&amp;quot;, monospace; font-size: 8px; white-space: pre; background-color: rgb(255, 255, 255);&quot;&gt;nb_data_to_compute_ss&lt;/span&gt;" style="html=1;strokeWidth=2;shape=manualInput;whiteSpace=wrap;rounded=1;size=26;arcSize=11;" vertex="1" parent="1">
          <mxGeometry x="690" y="630" width="100" height="60" as="geometry" />
        </mxCell>
        <mxCell id="k5P6EOGQu1ZiepA7MPoY-37" value="&lt;div style=&quot;color: rgb(0, 0, 0); background-color: rgb(255, 255, 255); font-family: &amp;quot;Droid Sans Mono&amp;quot;, &amp;quot;monospace&amp;quot;, monospace; font-weight: normal; font-size: 8px; line-height: 22px; white-space: pre;&quot;&gt;&lt;div&gt;&lt;span style=&quot;color: #000000;&quot;&gt;step_frame_vx = reshape_into_6sec_windows&lt;br/&gt;(column_type_extractor(df_slip_dataset,&lt;/span&gt;&lt;span style=&quot;color: #a31515;&quot;&gt;&quot;step_frame_vx&quot;&lt;/span&gt;&lt;span style=&quot;color: #000000;&quot;&gt;))&lt;/span&gt;&lt;/div&gt;&lt;/div&gt;" style="text;whiteSpace=wrap;html=1;" vertex="1" parent="1">
          <mxGeometry x="730" y="515" width="280" height="50" as="geometry" />
        </mxCell>
        <mxCell id="k5P6EOGQu1ZiepA7MPoY-48" style="edgeStyle=orthogonalEdgeStyle;rounded=0;orthogonalLoop=1;jettySize=auto;html=1;" edge="1" parent="1" source="k5P6EOGQu1ZiepA7MPoY-43" target="k5P6EOGQu1ZiepA7MPoY-47">
          <mxGeometry relative="1" as="geometry" />
        </mxCell>
        <mxCell id="k5P6EOGQu1ZiepA7MPoY-49" value="step_icp_interpolated(x,y,yaw)" style="edgeLabel;html=1;align=center;verticalAlign=middle;resizable=0;points=[];" vertex="1" connectable="0" parent="k5P6EOGQu1ZiepA7MPoY-48">
          <mxGeometry x="-0.0851" y="1" relative="1" as="geometry">
            <mxPoint as="offset" />
          </mxGeometry>
        </mxCell>
        <mxCell id="k5P6EOGQu1ZiepA7MPoY-43" value="&lt;span style=&quot;font-family: &amp;quot;Droid Sans Mono&amp;quot;, &amp;quot;monospace&amp;quot;, monospace; font-size: 8px; text-align: left; white-space: pre; background-color: rgb(255, 255, 255);&quot;&gt;icp_traj_smoothed_butter_on_a_whole_cmd&lt;/span&gt;" style="rounded=1;whiteSpace=wrap;html=1;absoluteArcSize=1;arcSize=14;strokeWidth=2;fontSize=8;" vertex="1" parent="1">
          <mxGeometry x="767.5" y="350" width="205" height="40" as="geometry" />
        </mxCell>
        <mxCell id="k5P6EOGQu1ZiepA7MPoY-46" style="edgeStyle=orthogonalEdgeStyle;rounded=0;orthogonalLoop=1;jettySize=auto;html=1;exitX=0.5;exitY=1;exitDx=0;exitDy=0;" edge="1" parent="1" source="k5P6EOGQu1ZiepA7MPoY-45" target="k5P6EOGQu1ZiepA7MPoY-43">
          <mxGeometry relative="1" as="geometry">
            <Array as="points">
              <mxPoint x="1105" y="370" />
            </Array>
          </mxGeometry>
        </mxCell>
        <mxCell id="k5P6EOGQu1ZiepA7MPoY-45" value="&lt;div style=&quot;background-color: rgb(255, 255, 255); font-family: &amp;quot;Droid Sans Mono&amp;quot;, &amp;quot;monospace&amp;quot;, monospace; line-height: 22px; white-space: pre; font-size: 8px;&quot;&gt;&lt;div&gt;fc = &lt;span style=&quot;color: #098658;&quot;&gt;0.90&lt;/span&gt;&lt;/div&gt;&lt;div&gt;        fs = &lt;span style=&quot;color: #098658;&quot;&gt;20&lt;/span&gt;&lt;/div&gt;&lt;div&gt;        Wn =  fc&lt;/div&gt;&lt;div&gt;        btype=&lt;span style=&quot;color: #a31515;&quot;&gt;&quot;lowpass&quot;&lt;/span&gt;&lt;/div&gt;&lt;div&gt;        output = &lt;span style=&quot;color: #a31515;&quot;&gt;&quot;ba&quot;&lt;/span&gt;&lt;/div&gt;&lt;div&gt;        order=&lt;span style=&quot;color: #098658;&quot;&gt;5&lt;/span&gt;&lt;/div&gt;&lt;/div&gt;" style="html=1;strokeWidth=2;shape=manualInput;whiteSpace=wrap;rounded=1;size=26;arcSize=11;" vertex="1" parent="1">
          <mxGeometry x="1030" y="160" width="150" height="180" as="geometry" />
        </mxCell>
        <mxCell id="k5P6EOGQu1ZiepA7MPoY-50" style="edgeStyle=orthogonalEdgeStyle;rounded=0;orthogonalLoop=1;jettySize=auto;html=1;" edge="1" parent="1" source="k5P6EOGQu1ZiepA7MPoY-47" target="k5P6EOGQu1ZiepA7MPoY-37">
          <mxGeometry relative="1" as="geometry">
            <mxPoint x="869.9999999999998" y="380" as="targetPoint" />
          </mxGeometry>
        </mxCell>
        <mxCell id="k5P6EOGQu1ZiepA7MPoY-47" value="&lt;div style=&quot;background-color: rgb(255, 255, 255); font-family: &amp;quot;Droid Sans Mono&amp;quot;, &amp;quot;monospace&amp;quot;, monospace; font-size: 8px; line-height: 22px; white-space: pre;&quot;&gt;compute_icp_single_step_vels_whole_cmd&lt;/div&gt;" style="rounded=1;whiteSpace=wrap;html=1;absoluteArcSize=1;arcSize=14;strokeWidth=2;fontSize=8;" vertex="1" parent="1">
          <mxGeometry x="741.25" y="450" width="257.5" height="40" as="geometry" />
        </mxCell>
      </root>
    </mxGraphModel>
  </diagram>
</mxfile>
